<svg width="244" height="17" viewBox="0 0 244 17" fill="none" xmlns="http://www.w3.org/2000/svg">
<path d="M11.5386 16H8.8086V9.578H3.1406V16H0.410602V0.451999H3.1406V6.978H8.8086V0.451999H11.5386V16ZM27.5355 16H24.6235L23.4795 12.698H17.5775L16.4335 16H13.5215L18.9555 0.451999H22.1275L27.5355 16ZM22.6215 10.098L20.5415 3.962L18.4355 10.098H22.6215ZM40.583 6.328C40.583 6.91733 40.427 7.446 40.115 7.914C39.9937 8.08733 39.777 8.33 39.465 8.642C39.153 8.93667 38.9017 9.15333 38.711 9.292C38.1737 9.67333 37.5584 9.864 36.865 9.864H32.289V16H29.559V0.451999H36.865C37.5584 0.451999 38.1737 0.642666 38.711 1.024C38.8844 1.14533 39.127 1.37067 39.439 1.7C39.7684 2.02933 39.9937 2.28067 40.115 2.454C40.427 2.922 40.583 3.45067 40.583 4.04V6.328ZM37.853 6.302V4.066C37.853 3.97933 37.8444 3.91867 37.827 3.884C37.5324 3.364 37.255 3.08667 36.995 3.052H36.865H32.289V7.264H36.865C36.9864 7.264 37.151 7.16867 37.359 6.978C37.567 6.78733 37.723 6.59667 37.827 6.406C37.8444 6.37133 37.853 6.33667 37.853 6.302ZM54.5479 6.328C54.5479 6.91733 54.3919 7.446 54.0799 7.914C53.9585 8.08733 53.7419 8.33 53.4299 8.642C53.1179 8.93667 52.8665 9.15333 52.6759 9.292C52.1385 9.67333 51.5232 9.864 50.8299 9.864H46.2539V16H43.5239V0.451999H50.8299C51.5232 0.451999 52.1385 0.642666 52.6759 1.024C52.8492 1.14533 53.0919 1.37067 53.4039 1.7C53.7332 2.02933 53.9585 2.28067 54.0799 2.454C54.3919 2.922 54.5479 3.45067 54.5479 4.04V6.328ZM51.8179 6.302V4.066C51.8179 3.97933 51.8092 3.91867 51.7919 3.884C51.4972 3.364 51.2199 3.08667 50.9599 3.052H50.8299H46.2539V7.264H50.8299C50.9512 7.264 51.1159 7.16867 51.3239 6.978C51.5319 6.78733 51.6879 6.59667 51.7919 6.406C51.8092 6.37133 51.8179 6.33667 51.8179 6.302ZM68.8767 0.451999L63.7287 9.214V16H60.9987V9.214L55.9027 0.451999H58.9187L62.3767 6.354L65.8347 0.451999H68.8767ZM88.1137 16H85.2277L79.8457 5.678V16H77.1157V0.451999H80.0537L85.3837 10.904V0.451999H88.1137V16ZM101.644 16H91.8676V0.451999H101.644V3.052H94.5976V6.978H101.15V9.578H94.5976V13.4H101.644V16ZM122.382 0.451999L118.768 16H115.674L113.178 5.574L110.656 16H107.536L103.974 0.451999H106.782L109.122 11.372L111.696 0.451999H114.608L117.182 11.372L119.496 0.451999H122.382ZM141.976 0.451999L136.828 9.214V16H134.098V9.214L129.002 0.451999H132.018L135.476 6.354L138.934 0.451999H141.976ZM153.872 16H144.096V0.451999H153.872V3.052H146.826V6.978H153.378V9.578H146.826V13.4H153.872V16ZM169.748 16H166.836L165.692 12.698H159.79L158.646 16H155.734L161.168 0.451999H164.34L169.748 16ZM164.834 10.098L162.754 3.962L160.648 10.098H164.834ZM182.796 6.328C182.796 6.91733 182.64 7.446 182.328 7.914C182.207 8.08733 181.99 8.33 181.678 8.642C181.366 8.93667 181.115 9.15333 180.924 9.292C180.699 9.46533 180.473 9.58667 180.248 9.656L183.342 16H180.378L177.492 9.864H174.502V16H171.772V0.451999H179.078C179.771 0.451999 180.387 0.642666 180.924 1.024C181.097 1.14533 181.34 1.37067 181.652 1.7C181.981 2.02933 182.207 2.28067 182.328 2.454C182.64 2.922 182.796 3.45067 182.796 4.04V6.328ZM180.066 6.302V4.066C180.066 3.97933 180.057 3.91867 180.04 3.884C179.745 3.364 179.468 3.08667 179.208 3.052H174.502V7.264H179.078C179.199 7.264 179.364 7.16867 179.572 6.978C179.78 6.78733 179.936 6.59667 180.04 6.406C180.057 6.37133 180.066 6.33667 180.066 6.302ZM199.682 2.974H197.056C196.986 2.974 196.934 2.98267 196.9 3C196.276 3.364 195.86 3.81467 195.652 4.352L193.052 3.572C193.208 3.156 193.39 2.80933 193.598 2.532C194.707 1.09333 195.825 0.374 196.952 0.374H199.708C200.384 0.374 200.99 0.573333 201.528 0.972C201.718 1.09333 201.97 1.31867 202.282 1.648C202.611 1.96 202.836 2.20267 202.958 2.376C203.27 2.844 203.426 3.37267 203.426 3.962V5.626C203.426 6.83933 202.784 7.77533 201.502 8.434L196.38 11.086C196.102 11.242 195.964 11.424 195.964 11.632V13.4H203.244V16H193.234V11.528C193.234 10.3493 193.884 9.422 195.184 8.746L200.358 6.068C200.583 5.964 200.696 5.79067 200.696 5.548V3.962L200.67 3.832C200.548 3.624 200.384 3.43333 200.176 3.26C199.968 3.06933 199.803 2.974 199.682 2.974ZM217.012 12.308C217.012 12.88 216.873 13.374 216.596 13.79C216.405 14.05 216.102 14.3967 215.686 14.83C215.287 15.246 214.958 15.5233 214.698 15.662C214.195 15.974 213.667 16.13 213.112 16.13H210.226C209.654 16.13 209.117 15.974 208.614 15.662C208.371 15.5233 208.033 15.246 207.6 14.83C207.184 14.3967 206.889 14.05 206.716 13.79C206.439 13.374 206.3 12.88 206.3 12.308V4.17C206.3 3.598 206.439 3.104 206.716 2.688C206.889 2.428 207.184 2.09 207.6 1.674C208.033 1.24067 208.371 0.954666 208.614 0.815999C209.117 0.503999 209.654 0.347998 210.226 0.347998H213.112C213.667 0.347998 214.195 0.503999 214.698 0.815999C214.958 0.954666 215.287 1.24067 215.686 1.674C216.102 2.09 216.405 2.428 216.596 2.688C216.873 3.104 217.012 3.598 217.012 4.17V12.308ZM209.03 4.222V12.282C209.03 12.334 209.039 12.3687 209.056 12.386C209.42 12.9233 209.801 13.296 210.2 13.504C210.235 13.5213 210.278 13.53 210.33 13.53H213.008C213.06 13.53 213.103 13.5213 213.138 13.504C213.537 13.296 213.909 12.9233 214.256 12.386L214.282 12.282V4.222C214.282 4.15267 214.273 4.10933 214.256 4.092C213.909 3.55467 213.537 3.182 213.138 2.974C213.103 2.95667 213.06 2.948 213.008 2.948H210.33C210.261 2.948 210.217 2.95667 210.2 2.974C209.801 3.16467 209.42 3.53733 209.056 4.092L209.03 4.222ZM226.647 2.974H224.021C223.951 2.974 223.899 2.98267 223.865 3C223.241 3.364 222.825 3.81467 222.617 4.352L220.017 3.572C220.173 3.156 220.355 2.80933 220.563 2.532C221.672 1.09333 222.79 0.374 223.917 0.374H226.673C227.349 0.374 227.955 0.573333 228.493 0.972C228.683 1.09333 228.935 1.31867 229.247 1.648C229.576 1.96 229.801 2.20267 229.923 2.376C230.235 2.844 230.391 3.37267 230.391 3.962V5.626C230.391 6.83933 229.749 7.77533 228.467 8.434L223.345 11.086C223.067 11.242 222.929 11.424 222.929 11.632V13.4H230.209V16H220.199V11.528C220.199 10.3493 220.849 9.422 222.149 8.746L227.323 6.068C227.548 5.964 227.661 5.79067 227.661 5.548V3.962L227.635 3.832C227.513 3.624 227.349 3.43333 227.141 3.26C226.933 3.06933 226.768 2.974 226.647 2.974ZM243.665 12.542C243.665 13.1313 243.509 13.66 243.197 14.128C243.076 14.3187 242.859 14.5787 242.547 14.908C242.235 15.22 241.984 15.4367 241.793 15.558C241.273 15.9393 240.658 16.13 239.947 16.13H237.087C235.96 16.13 234.842 15.4193 233.733 13.998C233.49 13.6687 233.291 13.296 233.135 12.88L235.787 12.178C236.134 12.8367 236.532 13.2787 236.983 13.504C237.018 13.5213 237.078 13.53 237.165 13.53H239.921C239.99 13.53 240.042 13.5213 240.077 13.504C240.424 13.2787 240.701 12.9927 240.909 12.646C240.926 12.6113 240.935 12.568 240.935 12.516V9.89L240.909 9.76C240.718 9.396 240.441 9.10133 240.077 8.876C240.042 8.85867 239.99 8.85 239.921 8.85H233.785V0.451999H242.911V3.052H236.515V6.25H239.947C240.658 6.25 241.273 6.458 241.793 6.874C241.984 6.99533 242.235 7.212 242.547 7.524C242.859 7.81867 243.076 8.05267 243.197 8.226C243.509 8.694 243.665 9.23133 243.665 9.838V12.542Z" fill="white"/>
</svg>
