<svg width="130" height="48" viewBox="0 0 130 48" fill="none" xmlns="http://www.w3.org/2000/svg">
<path d="M71.1312 35.9638H69.3177L58.0997 13.0146H61.2402L70.2257 31.4097L79.2087 13.0146H82.4121L71.1312 35.9638Z" fill="white"/>
<path d="M42.1023 15.6616L35.0176 15.6616V33.324H42.1023C44.9716 33.324 47.2307 32.5291 48.882 30.9372C50.5334 29.3452 51.3566 27.2018 51.3493 24.5047C51.3493 21.8434 50.5116 19.7025 48.8384 18.0818C47.1653 16.4612 44.9183 15.6545 42.1023 15.6616ZM42.1023 13.0218C45.7706 13.0218 48.7271 14.0887 50.9716 16.2225C53.2162 18.3563 54.3372 21.1346 54.3324 24.5596C54.3324 28.0085 53.2283 30.7725 51.0225 32.8514C48.8166 34.9303 45.8433 35.9709 42.1023 35.9709H32.129L32.129 13.0146L42.1023 13.0218Z" fill="white"/>
<path d="M7.50607 27.117L17.7555 27.117L12.6102 16.9516L7.50607 27.117ZM0 35.9721L11.4068 13.0229H13.8112L25.3463 35.9721H22.1986L19.0364 29.7974L6.17434 29.7974L3.09928 35.9625L0 35.9721Z" fill="white"/>
<path d="M87.5166 8.12825L95.5287 2.52881L88.8774 12.952L87.5166 8.12825Z" fill="white"/>
<path d="M99.543 11.1285L95.5285 2.52881L88.8771 12.952L99.543 11.1285Z" fill="white"/>
<path d="M106.364 0.421387L99.5431 11.1286L95.5286 2.52893L106.364 0.421387Z" fill="white"/>
<path d="M82.6356 16.9381L88.8777 12.9521L87.5169 8.12842L82.6356 16.9381Z" fill="white"/>
<path d="M115.868 2.52441L112.681 11.093L118.667 13.0765L115.868 2.52441Z" fill="white"/>
<path d="M106.364 0.421387L115.867 2.52416L112.681 11.0928L106.364 0.421387Z" fill="white"/>
<path d="M115.868 2.52441L123.889 8.24797L118.667 13.0765L115.868 2.52441Z" fill="white"/>
<path d="M81.5601 26.7411L88.8773 31.8488L82.6352 16.9385L81.5601 26.7411Z" fill="white"/>
<path d="M123.771 25.3779L126.674 36.1448L129.999 27.0511L123.771 25.3779Z" fill="white"/>
<path d="M128.933 17.0176L123.771 25.3785L129.999 27.0517L128.933 17.0176Z" fill="white"/>
<path d="M111.008 47.4915L107.158 37.8154L114.134 43.0783L111.008 47.4915Z" fill="white"/>
<path d="M117.798 38.4238L114.134 43.0781L119.875 43.5984L117.798 38.4238Z" fill="white"/>
<path d="M111.008 47.4913L119.875 43.5984L114.134 43.0781L111.008 47.4913Z" fill="white"/>
<path d="M107.158 37.8154L117.797 38.4241L114.134 43.0783L107.158 37.8154Z" fill="white"/>
<path d="M119.875 43.599L126.674 36.145L117.798 38.4244L119.875 43.599Z" fill="white"/>
<path d="M111.008 47.4915L100.473 47.5775L107.158 37.8154L111.008 47.4915Z" fill="white"/>
<path d="M91.4073 43.544L97.2354 41.1357L100.473 47.5777L91.4073 43.544Z" fill="white"/>
<path d="M107.158 37.8154L97.236 41.1355L100.473 47.5775L107.158 37.8154Z" fill="white"/>
<path d="M81.5601 26.7412L88.8773 31.849L84.6182 36.0259L81.5601 26.7412Z" fill="white"/>
<path d="M106.364 0.421387L109.563 5.82511L99.5435 11.1286L106.364 0.421387Z" fill="white"/>
<path d="M99.543 11.1289L91.8093 12.9524H88.8771L99.543 11.1289Z" fill="white"/>
<path d="M91.8094 23.9484L99.5431 11.1289L91.8094 12.9524V23.9484Z" fill="white"/>
<path d="M84.6185 36.0259L91.4078 43.5443L88.8776 36.0259H84.6185Z" fill="white"/>
<path d="M88.8776 31.8491V36.026H84.6185L88.8776 31.8491Z" fill="white"/>
<path d="M88.8777 12.9526L82.6356 16.9386L88.8777 31.849V12.9526Z" fill="white"/>
<path d="M99.5431 11.1289L102.049 13.0765L91.8094 23.9484L99.5431 11.1289Z" fill="white"/>
<path d="M103.568 13.0765L99.5435 11.1289L102.05 13.0765H103.568Z" fill="white"/>
<path d="M109.563 5.8252L103.568 13.0763L99.5435 11.1287L109.563 5.8252Z" fill="white"/>
<path d="M102.049 13.0767L91.8094 23.9485L102.049 36.0258V13.0767Z" fill="white"/>
<path d="M104.938 18.876V36.0252L111.394 26.1772L104.938 18.876Z" fill="white"/>
<path d="M112.681 11.0928L118.667 30.2254V13.0762L112.681 11.0928Z" fill="white"/>
<path d="M103.568 13.0762L118.667 30.2254L112.681 11.0928L103.568 13.0762Z" fill="white"/>
<path d="M123.89 8.24854L121.578 13.077H118.667L123.89 8.24854Z" fill="white"/>
<path d="M128.933 17.0176L121.577 13.077L123.889 8.24854L128.933 17.0176Z" fill="white"/>
<path d="M123.77 25.3782L121.577 13.0767L128.933 17.0173L123.77 25.3782Z" fill="white"/>
<path d="M126.674 36.1448L121.577 36.0255L123.77 25.3779L126.674 36.1448Z" fill="white"/>
<path d="M117.798 38.4246L121.577 36.0259L126.674 36.1452L117.798 38.4246Z" fill="white"/>
<path d="M123.77 25.3782L121.577 13.0767V36.0258L123.77 25.3782Z" fill="white"/>
<path d="M111.393 26.1777L120.1 36.0257L117.797 38.4244L111.393 26.1777Z" fill="white"/>
<path d="M104.938 36.0257L107.159 37.8158L111.394 26.1777L104.938 36.0257Z" fill="white"/>
<path d="M117.797 38.4244L107.158 37.8158L111.393 26.1777L117.797 38.4244Z" fill="white"/>
<path d="M121.577 36.0259H120.1L117.798 38.4246L121.577 36.0259Z" fill="white"/>
<path d="M91.8093 36.0259L91.4074 43.5443L88.8771 36.0259H91.8093Z" fill="white"/>
<path d="M97.2354 41.136L91.4073 43.5443L91.8093 36.0259L97.2354 41.136Z" fill="white"/>
<path d="M102.049 36.0259L97.2356 41.136L91.8094 36.0259H102.049Z" fill="white"/>
<path d="M104.938 36.0259L97.236 41.136L107.158 37.816L104.938 36.0259Z" fill="white"/>
<path d="M102.05 36.0259H104.938L97.236 41.136L102.05 36.0259Z" fill="white"/>
<path d="M91.8094 23.9482V36.0255H102.049L91.8094 23.9482Z" fill="white"/>
<path d="M112.681 11.0929L103.568 13.0763L109.563 5.8252L112.681 11.0929Z" fill="white"/>
</svg>
